<?xml version="1.0" encoding="UTF-8"?>
<!DOCTYPE svg PUBLIC "-//W3C//DTD SVG 1.1//EN" "http://www.w3.org/Graphics/SVG/1.1/DTD/svg11.dtd">
<!-- Creator: CorelDRAW 2020 (64-Bit Evaluation Version) -->
<svg xmlns="http://www.w3.org/2000/svg" xml:space="preserve" width="3.33333in" height="3.33333in" version="1.1" style="shape-rendering:geometricPrecision; text-rendering:geometricPrecision; image-rendering:optimizeQuality; fill-rule:evenodd; clip-rule:evenodd"
viewBox="0 0 3333.33 3333.33"
 xmlns:xlink="http://www.w3.org/1999/xlink"
 xmlns:xodm="http://www.corel.com/coreldraw/odm/2003">
 <defs>
  <style type="text/css">
   <![CDATA[
    .fil0 {fill:#FF473E;fill-rule:nonzero}
   ]]>
  </style>
 </defs>
 <g id="Layer_x0020_1">
  <metadata id="CorelCorpID_0Corel-Layer"/>
  <g id="_2304177900736">
   <g id="Page-1">
    <path id="Path_3_" class="fil0" d="M2796.68 2468.8c-69.96,0 -129.33,48.77 -144.17,116.6l-556.53 -26.5c2.12,-10.59 3.18,-21.2 3.18,-31.8 0,-19.08 -3.18,-38.16 -8.48,-57.24l202.47 -116.6c49.82,61.48 139.92,74.2 204.59,27.57 64.67,-46.63 81.63,-135.69 38.16,-202.47 -43.47,-66.78 -131.45,-87.98 -200.35,-48.76 -68.9,39.21 -95.4,126.14 -59.36,197.17l-196.1 113.41c-46.64,-98.59 -162.19,-143.11 -262.89,-101.76 -100.7,41.35 -151.58,154.77 -115.55,257.59l-364.66 87.98c-2.12,-49.82 -23.32,-96.46 -58.3,-132.5l65.72 -91.17c74.2,25.44 155.83,-11.66 185.51,-84.8 29.69,-73.14 -3.18,-156.88 -74.2,-189.74 -71.02,-33.92 -156.88,-5.3 -193.99,63.6 -37.11,68.9 -13.78,155.83 53,197.17l-60.43 83.74c-42.4,-31.8 -96.46,-45.58 -149.46,-39.22l-62.55 -357.23c78.44,-16.96 138.87,-78.44 155.83,-155.83 16.96,-78.44 -12.72,-159 -76.32,-206.72 -63.6,-48.76 -149.46,-55.12 -219.43,-18.02l-157.95 -308.48c33.92,-16.96 61.48,-43.46 81.63,-75.26l131.45 34.98c-1.06,7.42 -2.12,13.78 -2.12,21.2 0,76.32 58.3,140.99 134.63,148.41 76.32,7.42 146.28,-44.52 160.07,-120.84 13.78,-76.32 -31.8,-149.46 -106,-169.61 -74.2,-21.2 -151.59,18.02 -179.15,90.1l-124.03 -32.86c16.96,-40.28 20.15,-84.8 9.54,-127.2l365.71 -168.53c67.84,84.8 190.81,102.83 279.85,39.22 89.05,-63.6 112.37,-185.51 53,-276.67l233.21 -227.91c28.62,18.02 61.48,29.69 94.34,31.8l0 100.71c-77.39,8.48 -135.69,76.32 -131.45,154.77 4.24,78.45 68.9,139.92 147.34,139.92 78.44,0 143.11,-61.48 147.34,-139.92 4.23,-78.44 -53,-146.29 -131.45,-154.77l0 -100.71c29.69,-2.12 57.24,-10.59 82.68,-24.38l255.47 291.52c-59.36,78.44 -55.12,187.63 9.54,260.78 65.73,73.14 173.85,90.1 258.66,39.22 84.8,-50.87 120.84,-153.7 87.98,-245.93l79.51 -44.52c50.89,59.36 138.87,69.97 201.41,22.26 62.55,-46.64 77.39,-134.62 33.92,-199.28 -43.47,-64.66 -130.38,-84.8 -197.17,-44.52 -66.79,40.28 -91.17,125.09 -55.12,195.06l-75.26 42.4c-30.74,-56.19 -85.86,-94.35 -148.41,-103.89 -62.55,-9.54 -127.21,10.59 -172.79,55.12l-250.17 -285.15c24.38,-19.08 44.52,-44.52 58.31,-72.09l219.43 36.04c16.96,76.32 91.17,126.14 167.49,112.37 77.39,-12.72 130.38,-83.74 121.91,-161.12 -8.48,-77.39 -76.32,-135.69 -153.71,-131.45 -78.44,4.24 -138.87,67.84 -139.92,146.28l-203.53 -33.92c28.62,-97.52 -18.02,-201.41 -110.25,-244.87 -92.22,-43.47 -201.41,-11.66 -257.59,73.14 -56.18,84.8 -41.35,198.23 34.98,266.07l-226.85 221.55c-34.98,-40.28 -84.81,-65.72 -137.8,-69.97l0.01 -154.78c77.39,-8.48 135.69,-76.32 131.45,-154.77 -4.24,-78.45 -67.85,-138.86 -146.3,-138.86 -78.45,0 -143.11,61.48 -147.34,139.93 -4.23,78.44 53,146.28 131.45,154.77l0 153.71c-69.96,5.3 -132.51,46.63 -165.37,108.11 -32.86,62.55 -31.8,136.75 3.17,198.23l-356.17 163.26c-12.72,-30.74 -32.86,-57.24 -58.3,-78.44l138.87 -250.17c12.72,3.18 24.38,5.3 37.11,5.3 75.26,0 137.8,-56.18 147.34,-130.38 9.54,-74.2 -39.21,-143.11 -111.3,-161.13 -73.14,-18.02 -147.34,21.2 -173.85,91.17 -26.51,69.96 4.24,148.41 69.97,183.39l-134.63 243.81c-81.63,-48.76 -184.45,-34.98 -251.24,32.86 -65.72,67.85 -77.39,170.67 -27.57,251.23 49.82,80.56 147.34,116.6 237.46,87.98l160.07 312.72c-40.28,29.69 -68.9,74.2 -78.44,122.96l-116.6 -33.92c3.17,-11.66 4.24,-24.38 4.24,-36.04 0,-75.26 -56.19,-137.8 -130.38,-146.28 -74.2,-8.49 -143.11,39.22 -161.13,112.37 -18.01,73.15 22.26,147.34 93.29,172.79 69.96,25.44 148.41,-5.3 182.32,-72.09l124.03 36.04c0,3.18 0,6.37 0,9.54 0,69.97 34.98,134.63 94.34,171.73l-79.5 103.89c-58.31,-51.94 -147.34,-48.77 -202.47,7.42 -55.13,56.19 -57.26,144.17 -4.25,202.47 53.01,58.3 140.99,64.66 202.47,14.83 61.48,-49.82 72.09,-137.8 26.5,-201.41l85.86 -112.37c25.44,11.66 54.06,16.96 82.68,16.96 4.24,0 8.48,0 12.72,-1.06l63.6 359.35c-84.8,25.44 -144.17,102.83 -147.34,190.81 -2.12,89.05 53,168.54 136.74,198.23 83.75,29.69 177.03,2.12 231.09,-68.9l296.82 132.5c-2.12,10.59 -4.24,22.26 -4.24,32.86 0,75.26 56.19,138.87 131.45,147.34 75.26,8.48 144.17,-40.28 161.13,-113.43 16.96,-73.14 -24.38,-147.34 -95.4,-172.78 -71.02,-25.44 -149.46,7.42 -182.33,75.26l-289.39 -129.33c12.72,-23.32 21.2,-48.76 23.32,-75.26l377.38 -92.22c28.62,53 79.51,90.1 138.87,102.83 59.36,11.66 120.84,-3.18 167.49,-40.28l140.99 121.91c-32.86,72.09 -4.24,156.88 65.72,192.93 69.97,37.11 155.83,12.72 196.11,-55.12 40.28,-67.85 21.2,-154.77 -43.46,-199.28 -65.72,-44.52 -153.7,-29.69 -201.41,32.86l-134.65 -115.57c20.15,-21.2 34.98,-47.7 44.52,-75.26l560.77 27.56c1.06,81.63 66.78,146.29 148.41,146.29 81.63,0 147.34,-66.78 146.29,-147.34 0,-79.51 -65.72,-145.23 -147.35,-145.23l0 0z"/>
   </g>
  </g>
 </g>
</svg>
